# xmcd
#
# Track frame offsets:
#	150
#	15550
#	34309
#	52267
#	74824
#	92670
#	104757
#	121720
#	139296
#	153644
#	169822
#	185852
#	202418
#	216779
#	231191
#	247322
#	263612
#	278862
#	297890
#	315839
#
# Disc length: 4423 seconds
#
# Revision: 0
# Processed by: cddbd v1.5.2PL0 Copyright (c) Steve Scherf et al.
# Submitted via: audiograbber 1.83.01
#
DISCID=43114514
DTITLE=Various Artist - Big Tunes Back to the 90s 2 CD2
DYEAR=1900
DGENRE=Pop
TTITLE0=Bobby Brown - Two Can Play That Game
TTITLE1=CeCe Peniston - Finally
TTITLE2=Beats International - Dub Be Good To Me
TTITLE3=Stereo MCs - Step It Up
TTITLE4=Kenny 'Dope' pres The Bucketheads - The Bomb (These Sounds Fall Into My
TTITLE4=Mind)
TTITLE5=Sub Sub ft Melanie Williams - Ain't No Love (Ain't No Use)
TTITLE6=Lovestation - Teardrops
TTITLE7=Karen Ramirez - Looking For Love
TTITLE8=Touch and Go - Would You
TTITLE9=Incognito and Jocelyn Brown - Always There
TTITLE10=Sash ft Tina Cousins - Mysterious Times
TTITLE11=Chaka Demus and Pliers - Tease Me
TTITLE12=Scatman John - Scatman
TTITLE13=Rednex - Cotton Eye Joe
TTITLE14=Tzant ft ODC MC - Sounds Of Wickedness
TTITLE15=Aqua - Doctor Jones
TTITLE16=Clock - Axel F
TTITLE17=Scanty Sandwich - Because Of You
TTITLE18=PJ and Duncan - Let's Get Ready To Rhumble
TTITLE19=KWS - Please Don't Go
EXTD=Universal Music TV  - DANCENCD02
EXTT0=
EXTT1=
EXTT2=
EXTT3=
EXTT4=
EXTT5=
EXTT6=
EXTT7=
EXTT8=
EXTT9=
EXTT10=
EXTT11=
EXTT12=
EXTT13=
EXTT14=
EXTT15=
EXTT16=
EXTT17=
EXTT18=
EXTT19=
PLAYORDER=
